<svg width="38" height="38" viewBox="0 0 38 38" fill="none" xmlns="http://www.w3.org/2000/svg">
<g id="uil:comment">
<path id="Vector" d="M19 3.16667C16.9207 3.16667 14.8618 3.57621 12.9408 4.37191C11.0198 5.16761 9.27437 6.33388 7.80411 7.80414C4.83479 10.7735 3.16664 14.8007 3.16664 19C3.1528 22.6561 4.41873 26.2019 6.74497 29.0225L3.5783 32.1892C3.3586 32.4118 3.20978 32.6946 3.1506 33.0017C3.09143 33.3089 3.12455 33.6267 3.2458 33.915C3.37731 34.1999 3.5905 34.4393 3.85831 34.6028C4.12612 34.7663 4.43647 34.8465 4.74997 34.8333H19C23.1992 34.8333 27.2265 33.1652 30.1958 30.1959C33.1652 27.2265 34.8333 23.1993 34.8333 19C34.8333 14.8007 33.1652 10.7735 30.1958 7.80414C27.2265 4.83482 23.1992 3.16667 19 3.16667ZM19 31.6667H8.5658L10.0383 30.1942C10.3332 29.8975 10.4987 29.4962 10.4987 29.0779C10.4987 28.6596 10.3332 28.2583 10.0383 27.9617C7.96507 25.8907 6.674 23.165 6.38507 20.2489C6.09613 17.3328 6.82721 14.4068 8.45375 11.9692C10.0803 9.53173 12.5016 7.73357 15.3053 6.88113C18.1089 6.02868 21.1214 6.17469 23.8295 7.29428C26.5375 8.41387 28.7737 10.4378 30.1568 13.0212C31.54 15.6046 31.9847 18.5876 31.4151 21.4621C30.8455 24.3366 29.2969 26.9247 27.0331 28.7854C24.7693 30.6461 21.9303 31.6644 19 31.6667Z" fill="#222222"/>
</g>
</svg>
