<svg width="28" height="28" viewBox="0 0 28 28" fill="none" xmlns="http://www.w3.org/2000/svg">
<g id="mdi:invite">
<path id="Vector" d="M22.1667 19.8333V22.1666H8.16667V19.8333C8.16667 19.8333 8.16667 15.1666 15.1667 15.1666C22.1667 15.1666 22.1667 19.8333 22.1667 19.8333ZM18.6667 9.33331C18.6667 8.64108 18.4614 7.96439 18.0768 7.38882C17.6922 6.81325 17.1456 6.36464 16.5061 6.09974C15.8665 5.83483 15.1628 5.76552 14.4839 5.90057C13.8049 6.03561 13.1813 6.36896 12.6918 6.85844C12.2023 7.34792 11.869 7.97156 11.7339 8.6505C11.5989 9.32943 11.6682 10.0332 11.9331 10.6727C12.198 11.3122 12.6466 11.8589 13.2222 12.2435C13.7977 12.628 14.4744 12.8333 15.1667 12.8333C16.0949 12.8333 16.9852 12.4646 17.6415 11.8082C18.2979 11.1518 18.6667 10.2616 18.6667 9.33331ZM22.4 15.2366C23.0377 15.825 23.5519 16.5345 23.9124 17.3237C24.273 18.1129 24.4727 18.9661 24.5 19.8333V22.1666H28V19.8333C28 19.8333 28 15.8083 22.4 15.2366ZM21 5.83331C20.6475 5.83353 20.2972 5.88863 19.9617 5.99665C20.6442 6.97545 21.0102 8.14003 21.0102 9.33331C21.0102 10.5266 20.6442 11.6912 19.9617 12.67C20.2972 12.778 20.6475 12.8331 21 12.8333C21.9283 12.8333 22.8185 12.4646 23.4749 11.8082C24.1313 11.1518 24.5 10.2616 24.5 9.33331C24.5 8.40506 24.1313 7.51482 23.4749 6.85844C22.8185 6.20206 21.9283 5.83331 21 5.83331ZM9.33333 11.6666H5.83333V8.16665H3.5V11.6666H0V14H3.5V17.5H5.83333V14H9.33333V11.6666Z" fill="#4A4A4A"/>
</g>
</svg>
