<svg width="26" height="26" viewBox="0 0 26 26" fill="none" xmlns="http://www.w3.org/2000/svg">
<g id="material-symbols:group">
<path id="Vector" d="M1.08334 21.6667V18.6333C1.08334 18.0195 1.24151 17.455 1.55784 16.9401C1.87418 16.4251 2.29379 16.0326 2.81668 15.7625C3.93612 15.2028 5.07362 14.7828 6.22918 14.5026C7.38473 14.2224 8.55834 14.0826 9.75001 14.0833C10.9417 14.0833 12.1153 14.2235 13.2708 14.5037C14.4264 14.7839 15.5639 15.2035 16.6833 15.7625C17.207 16.0333 17.6269 16.4262 17.9433 16.9412C18.2596 17.4561 18.4174 18.0202 18.4167 18.6333V21.6667H1.08334ZM20.5833 21.6667V18.4167C20.5833 17.6222 20.362 16.8592 19.9193 16.1276C19.4765 15.396 18.8493 14.7687 18.0375 14.2458C18.9583 14.3542 19.825 14.5394 20.6375 14.8016C21.45 15.0638 22.2083 15.3841 22.9125 15.7625C23.5625 16.1236 24.059 16.5252 24.4021 16.9672C24.7451 17.4092 24.9167 17.8923 24.9167 18.4167V21.6667H20.5833ZM9.75001 13C8.55834 13 7.53821 12.5757 6.68959 11.7271C5.84098 10.8785 5.41668 9.85834 5.41668 8.66667C5.41668 7.47501 5.84098 6.45487 6.68959 5.60626C7.53821 4.75765 8.55834 4.33334 9.75001 4.33334C10.9417 4.33334 11.9618 4.75765 12.8104 5.60626C13.659 6.45487 14.0833 7.47501 14.0833 8.66667C14.0833 9.85834 13.659 10.8785 12.8104 11.7271C11.9618 12.5757 10.9417 13 9.75001 13ZM20.5833 8.66667C20.5833 9.85834 20.159 10.8785 19.3104 11.7271C18.4618 12.5757 17.4417 13 16.25 13C16.0514 13 15.7986 12.9773 15.4917 12.9318C15.1847 12.8863 14.932 12.8368 14.7333 12.7833C15.2208 12.2056 15.5957 11.5646 15.8578 10.8604C16.12 10.1563 16.2507 9.42501 16.25 8.66667C16.25 7.90834 16.1193 7.17709 15.8578 6.47292C15.5964 5.76876 15.2216 5.12779 14.7333 4.55001C14.9861 4.45973 15.2389 4.40087 15.4917 4.37342C15.7445 4.34598 15.9972 4.33262 16.25 4.33334C17.4417 4.33334 18.4618 4.75765 19.3104 5.60626C20.159 6.45487 20.5833 7.47501 20.5833 8.66667Z" fill="#222222"/>
</g>
</svg>
