<svg width="41" height="41" viewBox="0 0 41 41" fill="none" xmlns="http://www.w3.org/2000/svg">
<g id="ant-design:like-outlined">
<path id="Vector" d="M35.4706 21.3688C36.1433 20.48 36.5156 19.3909 36.5156 18.2578C36.5156 16.4601 35.5106 14.7584 33.8931 13.8095C33.4766 13.5652 33.0025 13.4367 32.5197 13.4371H22.9184L23.1586 8.51631C23.2146 7.32715 22.7942 6.19805 21.9774 5.33721C21.5766 4.91291 21.093 4.57532 20.5565 4.3453C20.02 4.11529 19.4421 3.99773 18.8584 3.9999C16.7764 3.9999 14.9346 5.40127 14.382 7.40723L10.9427 19.8594H5.76562C5.05693 19.8594 4.48438 20.4319 4.48438 21.1406V35.7148C4.48438 36.4235 5.05693 36.9961 5.76562 36.9961H29.8411C30.2095 36.9961 30.5698 36.924 30.9021 36.7799C32.808 35.9671 34.0372 34.1053 34.0372 32.0393C34.0372 31.5348 33.9651 31.0383 33.821 30.5578C34.4937 29.6689 34.866 28.5799 34.866 27.4468C34.866 26.9423 34.7939 26.4458 34.6498 25.9653C35.3225 25.0765 35.6948 23.9874 35.6948 22.8543C35.6868 22.3498 35.6147 21.8493 35.4706 21.3688ZM7.36719 34.1133V22.7422H10.6104V34.1133H7.36719ZM32.848 19.9795L31.9712 20.7402L32.5277 21.7572C32.7111 22.0922 32.8062 22.4684 32.804 22.8503C32.804 23.5109 32.5157 24.1396 32.0192 24.572L31.1424 25.3327L31.6989 26.3497C31.8823 26.6847 31.9774 27.0609 31.9752 27.4428C31.9752 28.1034 31.6869 28.732 31.1904 29.1645L30.3136 29.9252L30.8701 30.9422C31.0535 31.2772 31.1485 31.6534 31.1464 32.0353C31.1464 32.9321 30.6179 33.7409 29.8011 34.1093H13.1729V22.6141L17.1567 8.17998C17.2595 7.81002 17.48 7.48363 17.7849 7.25026C18.0898 7.01689 18.4624 6.88926 18.8464 6.88672C19.1507 6.88672 19.451 6.97481 19.6912 7.15498C20.0876 7.45127 20.2998 7.89971 20.2758 8.37617L19.8914 16.3199H32.4797C33.1924 16.7563 33.6328 17.4931 33.6328 18.2578C33.6328 18.9185 33.3445 19.5431 32.848 19.9795Z" fill="#222222"/>
</g>
</svg>
