<svg width="26" height="26" viewBox="0 0 26 26" fill="none" xmlns="http://www.w3.org/2000/svg">
<g id="uil:message">
<path id="Vector" d="M21.8287 10.0327L6.84282 2.53972C6.2514 2.24536 5.58359 2.14057 4.93044 2.23963C4.27729 2.33869 3.67058 2.63677 3.19303 3.09325C2.71549 3.54973 2.39035 4.14238 2.26194 4.7904C2.13353 5.43842 2.20811 6.11028 2.4755 6.71437L5.04451 12.4625C5.1028 12.6015 5.13282 12.7507 5.13282 12.9014C5.13282 13.0521 5.1028 13.2013 5.04451 13.3403L2.4755 19.0885C2.25788 19.5773 2.16588 20.1128 2.20787 20.6463C2.24985 21.1798 2.42448 21.6943 2.71589 22.1431C3.00731 22.5919 3.40626 22.9608 3.87649 23.2162C4.34672 23.4716 4.87333 23.6055 5.40845 23.6056C5.90966 23.6006 6.4034 23.4836 6.85353 23.2631L21.8394 15.7701C22.371 15.5027 22.8178 15.0929 23.13 14.5863C23.4423 14.0798 23.6076 13.4964 23.6076 12.9014C23.6076 12.3064 23.4423 11.723 23.13 11.2165C22.8178 10.7099 22.371 10.3001 21.8394 10.0327H21.8287ZM20.8761 13.8541L5.89014 21.347C5.69336 21.4415 5.47239 21.4736 5.25687 21.4389C5.04134 21.4043 4.84157 21.3046 4.68433 21.1531C4.52709 21.0017 4.4199 20.8058 4.37714 20.5918C4.33437 20.3777 4.35808 20.1557 4.44507 19.9555L7.00338 14.2073C7.0365 14.1306 7.0651 14.0519 7.08902 13.9718H14.4642C14.7481 13.9718 15.0204 13.8591 15.2211 13.6583C15.4219 13.4576 15.5347 13.1853 15.5347 12.9014C15.5347 12.6175 15.4219 12.3453 15.2211 12.1445C15.0204 11.9438 14.7481 11.831 14.4642 11.831H7.08902C7.0651 11.7509 7.0365 11.6723 7.00338 11.5955L4.44507 5.84732C4.35808 5.64712 4.33437 5.42509 4.37714 5.21103C4.4199 4.99697 4.52709 4.8011 4.68433 4.64968C4.84157 4.49826 5.04134 4.39854 5.25687 4.36388C5.47239 4.32922 5.69336 4.36129 5.89014 4.45577L20.8761 11.9487C21.0514 12.0386 21.1985 12.175 21.3013 12.3431C21.404 12.5112 21.4584 12.7044 21.4584 12.9014C21.4584 13.0984 21.404 13.2916 21.3013 13.4597C21.1985 13.6278 21.0514 13.7643 20.8761 13.8541Z" fill="white"/>
</g>
</svg>
