<svg width="27" height="27" viewBox="0 0 27 27" fill="none" xmlns="http://www.w3.org/2000/svg">
<g id="material-symbols:feed-rounded">
<path id="Vector" d="M5.625 23.625C5.00625 23.625 4.47638 23.4045 4.03538 22.9635C3.59438 22.5225 3.37425 21.993 3.375 21.375V5.625C3.375 5.00625 3.5955 4.47638 4.0365 4.03538C4.4775 3.59438 5.007 3.37425 5.625 3.375H17.0719C17.3719 3.375 17.658 3.43125 17.9303 3.54375C18.2025 3.65625 18.4414 3.81563 18.6469 4.02188L22.9781 8.35313C23.1844 8.55938 23.3438 8.79863 23.4563 9.07088C23.5688 9.34313 23.625 9.62888 23.625 9.92813V21.375C23.625 21.9938 23.4045 22.5236 22.9635 22.9646C22.5225 23.4056 21.993 23.6258 21.375 23.625H5.625ZM16.875 5.625V9C16.875 9.31875 16.983 9.58613 17.199 9.80213C17.415 10.0181 17.682 10.1258 18 10.125H21.375L16.875 5.625ZM18 19.125C18.3188 19.125 18.5861 19.017 18.8021 18.801C19.0181 18.585 19.1258 18.318 19.125 18C19.125 17.6813 19.017 17.4139 18.801 17.1979C18.585 16.9819 18.318 16.8743 18 16.875H9C8.68125 16.875 8.41388 16.983 8.19788 17.199C7.98188 17.415 7.87425 17.682 7.875 18C7.875 18.3188 7.983 18.5861 8.199 18.8021C8.415 19.0181 8.682 19.1258 9 19.125H18ZM12.375 10.125C12.6938 10.125 12.9611 10.017 13.1771 9.801C13.3931 9.585 13.5008 9.318 13.5 9C13.5 8.68125 13.392 8.41388 13.176 8.19788C12.96 7.98188 12.693 7.87425 12.375 7.875H9C8.68125 7.875 8.41388 7.983 8.19788 8.199C7.98188 8.415 7.87425 8.682 7.875 9C7.875 9.31875 7.983 9.58613 8.199 9.80213C8.415 10.0181 8.682 10.1258 9 10.125H12.375ZM18 14.625C18.3188 14.625 18.5861 14.517 18.8021 14.301C19.0181 14.085 19.1258 13.818 19.125 13.5C19.125 13.1813 19.017 12.9139 18.801 12.6979C18.585 12.4819 18.318 12.3743 18 12.375H9C8.68125 12.375 8.41388 12.483 8.19788 12.699C7.98188 12.915 7.87425 13.182 7.875 13.5C7.875 13.8188 7.983 14.0861 8.199 14.3021C8.415 14.5181 8.682 14.6258 9 14.625H18Z" fill="#222222"/>
</g>
</svg>
