<svg width="42" height="42" viewBox="0 0 42 42" fill="none" xmlns="http://www.w3.org/2000/svg">
<g id="iconamoon:profile-bold">
<g id="Group">
<path id="Vector" d="M7 31.5C7 29.6435 7.7375 27.863 9.05025 26.5503C10.363 25.2375 12.1435 24.5 14 24.5H28C29.8565 24.5 31.637 25.2375 32.9497 26.5503C34.2625 27.863 35 29.6435 35 31.5C35 32.4283 34.6313 33.3185 33.9749 33.9749C33.3185 34.6313 32.4283 35 31.5 35H10.5C9.57174 35 8.6815 34.6313 8.02513 33.9749C7.36875 33.3185 7 32.4283 7 31.5Z" stroke="#222222" stroke-width="2" stroke-linejoin="round"/>
<path id="Vector_2" d="M21 17.5C23.8995 17.5 26.25 15.1495 26.25 12.25C26.25 9.35051 23.8995 7 21 7C18.1005 7 15.75 9.35051 15.75 12.25C15.75 15.1495 18.1005 17.5 21 17.5Z" stroke="#222222" stroke-width="2"/>
</g>
</g>
</svg>
