<svg width="21" height="21" viewBox="0 0 21 21" fill="none" xmlns="http://www.w3.org/2000/svg">
<g id="streamline:interface-user-profile-focus-close-geometric-human-person-profile-focus-user">
<g id="Group">
<path id="Vector" d="M10.5 12C12.5711 12 14.25 10.3211 14.25 8.25C14.25 6.17893 12.5711 4.5 10.5 4.5C8.42893 4.5 6.75 6.17893 6.75 8.25C6.75 10.3211 8.42893 12 10.5 12Z" stroke="#222222" stroke-width="1.5" stroke-linecap="round" stroke-linejoin="round"/>
<path id="Vector_2" d="M15.465 16.125C14.0944 14.9144 12.3287 14.2463 10.5 14.2463C8.6713 14.2463 6.90561 14.9144 5.535 16.125M20.25 15.75V18.75C20.25 19.1478 20.092 19.5294 19.8107 19.8107C19.5294 20.092 19.1478 20.25 18.75 20.25H15.75M15.75 0.75H18.75C19.1478 0.75 19.5294 0.908035 19.8107 1.18934C20.092 1.47064 20.25 1.85218 20.25 2.25V5.25M0.75 5.25V2.25C0.75 1.85218 0.908035 1.47064 1.18934 1.18934C1.47064 0.908035 1.85218 0.75 2.25 0.75H5.25M5.25 20.25H2.25C1.85218 20.25 1.47064 20.092 1.18934 19.8107C0.908035 19.5294 0.75 19.1478 0.75 18.75V15.75" stroke="#222222" stroke-width="1.5" stroke-linecap="round" stroke-linejoin="round"/>
</g>
</g>
</svg>
