<svg width="22" height="22" viewBox="0 0 22 22" fill="none" xmlns="http://www.w3.org/2000/svg">
<g id="teenyicons:search-outline">
<path id="Vector" d="M20.3333 20.3334L15 15M9.66666 17.6667C8.61608 17.6667 7.57579 17.4598 6.60519 17.0577C5.63458 16.6557 4.75267 16.0664 4.0098 15.3235C3.26693 14.5807 2.67766 13.6988 2.27562 12.7282C1.87358 11.7575 1.66666 10.7173 1.66666 9.66669C1.66666 8.61611 1.87358 7.57582 2.27562 6.60522C2.67766 5.63461 3.26693 4.7527 4.0098 4.00983C4.75267 3.26696 5.63458 2.67769 6.60519 2.27565C7.57579 1.87361 8.61608 1.66669 9.66666 1.66669C11.7884 1.66669 13.8232 2.50954 15.3235 4.00983C16.8238 5.51012 17.6667 7.54495 17.6667 9.66669C17.6667 11.7884 16.8238 13.8232 15.3235 15.3235C13.8232 16.8238 11.7884 17.6667 9.66666 17.6667Z" stroke="#222222" stroke-width="2"/>
</g>
</svg>
